<?xml version="1.0" encoding="utf-8"?>
<!-- Generator: Adobe Illustrator 22.1.0, SVG Export Plug-In . SVG Version: 6.00 Build 0)  -->
<svg version="1.1" id="Layer_1" xmlns="http://www.w3.org/2000/svg" xmlns:xlink="http://www.w3.org/1999/xlink" x="0px" y="0px"
	 viewBox="0 0 455.5 201.6" style="enable-background:new 0 0 455.5 201.6;" xml:space="preserve">
<style type="text/css">
	.st0{fill:#131E29;}
</style>
<g>
	<path class="st0" d="M95.1,66.9h10.7l29,66.4h-12.2l-6.7-15.9H84.7L78,133.3H66.1L95.1,66.9z M111.7,107.1l-11.4-26.4L89,107.1
		H111.7z"/>
	<path class="st0" d="M155.5,105.3V67.4h11.6v37.5c0,12.2,6.3,18.8,16.7,18.8c10.3,0,16.6-6.2,16.6-18.4V67.4h11.6v37.4
		c0,19.7-11.1,29.6-28.3,29.6C166.4,134.3,155.5,124.4,155.5,105.3z"/>
	<path class="st0" d="M242.1,67.4h29.4c8.3,0,14.8,2.4,19,6.6c3.5,3.6,5.5,8.5,5.5,14.2v0.2c0,10.8-6.5,17.3-15.7,20l17.8,24.9
		h-13.6l-16.2-23H268h-14.3v23h-11.6V67.4z M270.6,100.1c8.3,0,13.6-4.3,13.6-11v-0.2c0-7.1-5.1-10.9-13.7-10.9h-16.9v22.1H270.6z"
		/>
	<path class="st0" d="M349.1,66.9h10.7l29,66.4h-12.2l-6.7-15.9h-31.2l-6.8,15.9h-11.9L349.1,66.9z M365.7,107.1l-11.4-26.4
		L343,107.1H365.7z"/>
</g>
</svg>
