<svg width="64" height="64" viewBox="0 0 64 64" fill="none" xmlns="http://www.w3.org/2000/svg">
<rect width="64" height="64" fill="white"/>
<path d="M17.5875 44.8333V44.8458H17.6H46.4H46.4125V44.8333V19.1667V19.1542H46.4H17.6H17.5875V19.1667V44.8333ZM17.6 48.4875C16.6134 48.4875 15.7691 48.1299 15.0664 47.4142C14.3637 46.6984 14.0125 45.8384 14.0125 44.8333V19.1667C14.0125 18.1616 14.3637 17.3016 15.0664 16.5858C15.7691 15.8701 16.6134 15.5125 17.6 15.5125H46.4C47.3866 15.5125 48.2309 15.8701 48.9336 16.5858C49.6363 17.3016 49.9875 18.1616 49.9875 19.1667V44.8333C49.9875 45.8384 49.6363 46.6984 48.9336 47.4142C48.2309 48.1299 47.3866 48.4875 46.4 48.4875H17.6ZM42.7875 37.5125V41.1542H21.2125V37.5125H42.7875ZM28.3875 22.8458V33.8208H21.2125V22.8458H28.3875ZM42.7875 30.1792V33.8208H32.0125V30.1792H42.7875ZM42.7875 22.8458V26.4875H32.0125V22.8458H42.7875Z" fill="black" stroke="white" stroke-width="0.025"/>
</svg>
