<svg width="24" height="24" viewBox="0 0 24 24" fill="none" xmlns="http://www.w3.org/2000/svg">
<path fill-rule="evenodd" clip-rule="evenodd" d="M12 12.0003C13.8955 10.054 14.364 7.12679 13.1705 4.68622C13.0958 4.50854 13.1299 4.30377 13.258 4.15982C13.3861 4.01586 13.5856 3.95834 13.7707 4.01194C15.1963 4.37939 16.4975 5.12171 17.5393 6.16183C20.7638 9.30312 20.8318 14.4634 17.6914 17.6886C14.4664 20.8294 9.30612 20.7618 6.16456 17.5376C5.12383 16.4965 4.38111 15.1955 4.01367 13.77C3.95979 13.5846 4.0174 13.3848 4.16168 13.2565C4.30596 13.1283 4.51117 13.0945 4.68895 13.1698C7.12844 14.3627 10.0543 13.8946 12 12.0003Z" stroke="black" stroke-width="1.5" stroke-linecap="round" stroke-linejoin="round"/>
</svg>
