<svg width="24" height="24" viewBox="0 0 24 24" fill="none" xmlns="http://www.w3.org/2000/svg">
<path d="M14.097 6C13.716 5.408 12.923 5 12 5C11.077 5 10.284 5.408 9.89799 6" stroke="#323232" stroke-width="1.5" stroke-linecap="round" stroke-linejoin="round"/>
<path d="M16.65 3.972C15.626 2.781 13.927 2 11.999 2C10.069 2 8.369 2.783 7.345 3.975" stroke="#323232" stroke-width="1.5" stroke-linecap="round" stroke-linejoin="round"/>
<path fill-rule="evenodd" clip-rule="evenodd" d="M4 19.5621V16.0781C4 14.9731 4.895 14.0781 6 14.0781H18C19.105 14.0781 20 14.9731 20 16.0781V19.5621V21.0001C20 21.5521 19.552 22.0001 19 22.0001H17C16.448 22.0001 16 21.5521 16 21.0001V20.0001H8V21.0001C8 21.5521 7.552 22.0001 7 22.0001H5C4.448 22.0001 4 21.5521 4 21.0001V19.5621V19.5621Z" stroke="#323232" stroke-width="1.5" stroke-linecap="round" stroke-linejoin="round"/>
<path d="M6 14.078L6.826 10.544C7.038 9.64 7.845 9 8.774 9H15.313C16.26 9 17.077 9.664 17.271 10.59L18 14.078" stroke="#323232" stroke-width="1.5" stroke-linecap="round" stroke-linejoin="round"/>
<path d="M16.94 17H14.94" stroke="#323232" stroke-width="1.5" stroke-linecap="round" stroke-linejoin="round"/>
<path d="M9 17H7" stroke="#323232" stroke-width="1.5" stroke-linecap="round" stroke-linejoin="round"/>
<path d="M18 14L20 13" stroke="#323232" stroke-width="1.5" stroke-linecap="round" stroke-linejoin="round"/>
<path d="M6 14L4 13" stroke="#323232" stroke-width="1.5" stroke-linecap="round" stroke-linejoin="round"/>
</svg>
