<svg width="48" height="48" viewBox="0 0 48 48" fill="none" xmlns="http://www.w3.org/2000/svg">
<g clip-path="url(#clip0_217_199)">
<path d="M29.0106 48C30.6155 48 32.0151 46.6005 32.0151 44.9955V37.9788H34.0212C35.2251 37.9788 36.0274 37.1761 36.0274 35.9726V15.9316H11.9727V35.9728C11.9727 37.1765 12.7751 37.9789 13.9788 37.9789H15.9851V44.9957C15.9851 46.6006 17.3844 48.0002 18.9896 48.0002C20.5944 48.0002 21.9938 46.6006 21.9938 44.9957V37.9789H26.0062V44.9957C26.0061 46.6005 27.4056 48 29.0106 48Z" fill="black"/>
<path d="M41.0381 35.9728C42.643 35.9728 44.0423 34.5733 44.0423 32.9683V18.9349C44.0423 17.3384 42.643 15.9316 41.0381 15.9316C39.433 15.9316 38.0336 17.3384 38.0336 18.9349V32.9683C38.0336 34.5732 39.4329 35.9728 41.0381 35.9728Z" fill="black"/>
<path d="M6.962 35.9728C8.56708 35.9728 9.96649 34.5733 9.96649 32.9683V18.9349C9.96649 17.3384 8.56724 15.9316 6.962 15.9316C5.35708 15.9316 3.95782 17.3384 3.95782 18.9349V32.9683C3.95782 34.5732 5.35708 35.9728 6.962 35.9728Z" fill="black"/>
<path d="M33.6198 0.302724C33.2187 -0.100908 32.6216 -0.100908 32.2206 0.302724L29.5298 2.98447L29.4057 3.10845C27.8102 2.30951 26.0214 1.91052 24.0294 1.90668C24.0196 1.90668 24.01 1.90636 24.0002 1.90636H23.9999C23.9898 1.90636 23.9805 1.90668 23.9705 1.90668C21.9786 1.91052 20.1898 2.30951 18.5945 3.10845L18.47 2.98447L15.7794 0.302724C15.3781 -0.100908 14.7813 -0.100908 14.3802 0.302724C13.9788 0.704113 13.9788 1.29979 14.3802 1.70086L16.983 4.30413C16.1443 4.86408 15.3838 5.5493 14.7225 6.33302C13.1392 8.20974 12.1293 10.6522 11.9904 13.2985C11.9892 13.3261 11.9864 13.3533 11.9852 13.3809C11.9767 13.5611 11.9727 13.7422 11.9727 13.924H36.0274C36.0274 13.7422 36.023 13.5611 36.0149 13.3809C36.0136 13.3533 36.0109 13.3261 36.0093 13.2985C35.8707 10.6522 34.8605 8.20958 33.2772 6.33318C32.6162 5.54946 31.8554 4.86424 31.0167 4.30429L33.6198 1.70102C34.0212 1.29979 34.0212 0.704113 33.6198 0.302724ZM18.9858 10.4212C18.1558 10.4212 17.4829 9.74835 17.4829 8.91834C17.4829 8.08833 18.1558 7.41545 18.9858 7.41545C19.8158 7.41545 20.4886 8.08833 20.4886 8.91834C20.4886 9.74835 19.8158 10.4212 18.9858 10.4212ZM29.0143 10.4212C28.1842 10.4212 27.5114 9.74835 27.5114 8.91834C27.5114 8.08833 28.1842 7.41545 29.0143 7.41545C29.8443 7.41545 30.5171 8.08833 30.5171 8.91834C30.5171 9.74835 29.8443 10.4212 29.0143 10.4212Z" fill="black"/>
</g>
<defs>
<clipPath id="clip0_217_199">
<rect width="48" height="48" fill="white"/>
</clipPath>
</defs>
</svg>
