<svg width="53" height="65" viewBox="0 0 53 65" fill="none" xmlns="http://www.w3.org/2000/svg">
<g clip-path="url(#clip0_217_197)">
<path d="M51.3136 22.1585C50.936 22.451 44.2687 26.2015 44.2687 34.541C44.2687 44.187 52.7526 47.5995 53.0065 47.684C52.9674 47.892 51.6587 52.3575 48.5334 56.9075C45.7467 60.9115 42.8362 64.909 38.4087 64.909C33.9812 64.909 32.8418 62.3415 27.7306 62.3415C22.7496 62.3415 20.9786 64.9935 16.9287 64.9935C12.8789 64.9935 10.0531 61.2885 6.80405 56.7385C3.04066 51.3955 0 43.095 0 35.217C0 22.581 8.22998 15.8795 16.3297 15.8795C20.6335 15.8795 24.2211 18.7005 26.9232 18.7005C29.4951 18.7005 33.5059 15.7105 38.4022 15.7105C40.2579 15.7105 46.9252 15.8795 51.3136 22.1585ZM36.0778 10.361C38.1027 7.9625 39.5351 4.6345 39.5351 1.3065C39.5351 0.845 39.4961 0.377 39.4114 0C36.1168 0.1235 32.1972 2.1905 29.8337 4.927C27.978 7.033 26.2461 10.361 26.2461 13.7345C26.2461 14.2415 26.3307 14.7485 26.3698 14.911C26.5781 14.95 26.9167 14.9955 27.2553 14.9955C30.2113 14.9955 33.9291 13.0195 36.0778 10.361Z" fill="black"/>
</g>
<defs>
<clipPath id="clip0_217_197">
<rect width="53" height="65" fill="white"/>
</clipPath>
</defs>
</svg>
