<svg width="24" height="24" viewBox="0 0 24 24" fill="none" xmlns="http://www.w3.org/2000/svg">
<path fill-rule="evenodd" clip-rule="evenodd" d="M20 21H4C2.895 21 2 20.105 2 19V5C2 3.895 2.895 3 4 3H20C21.105 3 22 3.895 22 5V19C22 20.105 21.105 21 20 21Z" stroke="#323232" stroke-width="1.5" stroke-linecap="round" stroke-linejoin="round"/>
<path d="M2 8H22" stroke="#323232" stroke-width="1.5" stroke-linecap="round" stroke-linejoin="round"/>
<path d="M4.77899 5.49012C4.77599 5.49012 4.77399 5.49212 4.77399 5.49512C4.77399 5.49812 4.77599 5.50012 4.77899 5.50012C4.78199 5.50012 4.78399 5.49812 4.78399 5.49512C4.78399 5.49212 4.78199 5.49012 4.77899 5.49012" stroke="#323232" stroke-width="1.5" stroke-linecap="round" stroke-linejoin="round"/>
<path d="M7.32199 5.49012C7.31899 5.49012 7.31699 5.49212 7.31699 5.49512C7.31699 5.49812 7.31999 5.50012 7.32199 5.50012C7.32499 5.50012 7.32699 5.49812 7.32699 5.49512C7.32699 5.49212 7.32499 5.49012 7.32199 5.49012" stroke="#323232" stroke-width="1.5" stroke-linecap="round" stroke-linejoin="round"/>
<path d="M9.86099 5.49012C9.85799 5.49012 9.85599 5.49212 9.85599 5.49512C9.85599 5.49812 9.85799 5.50012 9.86099 5.50012C9.86399 5.50012 9.86599 5.49812 9.86599 5.49512C9.86599 5.49212 9.86399 5.49012 9.86099 5.49012" stroke="#323232" stroke-width="1.5" stroke-linecap="round" stroke-linejoin="round"/>
<path d="M10.9749 12.0251C12.3418 13.392 12.3418 15.608 10.9749 16.9749C9.60807 18.3417 7.392 18.3417 6.02516 16.9749C4.65832 15.608 4.65832 13.392 6.02516 12.0251C7.392 10.6583 9.60807 10.6583 10.9749 12.0251" stroke="#323232" stroke-width="1.5" stroke-linecap="round" stroke-linejoin="round"/>
<path d="M10.975 16.975L8.5 14.5V11" stroke="#323232" stroke-width="1.5" stroke-linecap="round" stroke-linejoin="round"/>
<path d="M15 12H18" stroke="#323232" stroke-width="1.5" stroke-linecap="round" stroke-linejoin="round"/>
<path d="M15 15H17" stroke="#323232" stroke-width="1.5" stroke-linecap="round" stroke-linejoin="round"/>
</svg>
